<svg xmlns="http://www.w3.org/2000/svg" data-name="Layer 1" viewBox="0 0 100 100" x="0px" y="0px">
    <path d="M59.57,68.66l0,.53A8.55,8.55,0,0,1,51,77H49a8.55,8.55,0,0,1-8.52-7.77l0-.53a4.22,4.22,0,0,1,3.7-4.58,49.2,49.2,0,0,1,11.72,0A4.22,4.22,0,0,1,59.57,68.66ZM95.91,9.88c2,4.33,4.82,12.78,1.71,20.85a20.57,20.57,0,0,1-9.47,10.52C89.91,50.3,92,63.58,86,74.9a116.11,116.11,0,0,0-11.45,4,21.31,21.31,0,0,1-4.43,7.92,22.7,22.7,0,0,1-17,7.56H46.87a22.7,22.7,0,0,1-17-7.56,21.31,21.31,0,0,1-4.44-7.92A116,116,0,0,0,14,74.9C8,63.58,10.1,50.3,11.86,41.25A20.58,20.58,0,0,1,2.38,30.72C-.73,22.66,2.12,14.2,4.09,9.88a7.18,7.18,0,0,1,9-3.81c4,1.43,8.48,4.74,11.34,7.08A58.19,58.19,0,0,1,50,7.2h0a58.19,58.19,0,0,1,25.56,5.94c2.86-2.34,7.34-5.65,11.33-7.08A7.18,7.18,0,0,1,95.91,9.88ZM34.46,44.27a5.53,5.53,0,1,0-5.53-5.53A5.53,5.53,0,0,0,34.46,44.27ZM65.94,71.44,64.64,60.82a13.72,13.72,0,0,0-6.62-10,15.55,15.55,0,0,0-16,0,13.72,13.72,0,0,0-6.62,10L34.06,71.44a11.45,11.45,0,0,0,2.88,9.07,13.21,13.21,0,0,0,9.92,4.37h6.26a13.21,13.21,0,0,0,9.92-4.37A11.45,11.45,0,0,0,65.94,71.44Zm5.14-32.71a5.53,5.53,0,1,0-5.53,5.53A5.53,5.53,0,0,0,71.07,38.74Z"/>
</svg>