<?xml version="1.0" standalone="no"?>
<!DOCTYPE svg PUBLIC "-//W3C//DTD SVG 20010904//EN"
 "http://www.w3.org/TR/2001/REC-SVG-20010904/DTD/svg10.dtd">
<svg version="1.0" xmlns="http://www.w3.org/2000/svg"
 width="125.000000pt" height="90.000000pt" viewBox="0 0 125.000000 90.000000"
 preserveAspectRatio="xMidYMid meet">
<metadata>
Created by potrace 1.12, written by Peter Selinger 2001-2015
</metadata>
<g transform="translate(0.000000,90.000000) scale(0.100000,-0.100000)"
fill="#000000" stroke="none">
<path d="M0 450 l0 -450 58 2 c48 1 51 2 15 5 -23 2 -46 10 -52 17 -8 9 -10
143 -9 437 l3 424 599 3 c431 1 603 -1 612 -9 11 -9 14 -91 17 -418 l2 -406 3
423 2 422 -625 0 -625 0 0 -450z"/>
<path d="M291 758 c-1 -10 -5 -18 -11 -18 -5 0 -10 -7 -10 -15 0 -8 -6 -15
-13 -15 -8 0 -33 -14 -55 -30 -47 -34 -52 -56 -28 -125 10 -29 22 -42 42 -48
16 -5 44 -21 63 -35 31 -23 33 -28 28 -66 -9 -67 -67 -229 -90 -254 -12 -13
-35 -31 -50 -39 -23 -12 -26 -17 -16 -29 9 -11 7 -14 -10 -14 -15 0 -20 4 -15
13 5 9 4 9 -6 1 -7 -7 -9 -21 -5 -34 6 -20 7 -21 20 -3 13 17 14 17 29 -2 13
-17 18 -18 35 -7 12 6 26 12 33 12 7 0 19 13 26 30 7 16 30 39 50 51 20 12 49
34 64 47 15 14 30 23 33 21 2 -3 10 -37 17 -76 13 -80 5 -103 -38 -103 -13 0
-24 -5 -24 -10 0 -7 30 -10 82 -8 l82 3 2 95 c3 115 30 207 60 202 117 -17
162 -26 180 -37 23 -15 37 -77 38 -180 1 -55 -1 -60 -21 -63 -51 -7 -19 -22
47 -22 53 0 70 3 70 14 0 18 70 166 79 165 8 -1 124 -134 129 -148 2 -6 -9
-11 -27 -11 -17 0 -31 -4 -31 -10 0 -13 116 -13 139 0 28 14 34 40 15 61 -16
18 -23 43 -44 159 -13 70 -13 245 -1 288 7 23 6 35 -3 45 -8 7 -20 26 -29 43
-25 48 -101 111 -149 124 -52 15 -123 8 -284 -25 l-121 -25 -59 20 c-32 12
-91 23 -131 27 -59 5 -73 9 -81 27 -9 17 -11 18 -11 4z"/>
</g>
</svg>
