<?xml version="1.0" encoding="UTF-8" standalone="no"?>
<svg width="485px" height="139px" viewBox="0 0 485 139" version="1.1" xmlns="http://www.w3.org/2000/svg" xmlns:xlink="http://www.w3.org/1999/xlink">
    <!-- Generator: Sketch 39.1 (31720) - http://www.bohemiancoding.com/sketch -->
    <title>bg_bear_tracks</title>
    <desc>Created with Sketch.</desc>
    <defs>
        <polygon id="path-1" points="-4.54747287e-13 0.38124877 -4.54747287e-13 19.0307858 19.0274001 19.0307858 19.0274001 0.38124877 -4.54747351e-13 0.38124877"></polygon>
        <polygon id="path-3" points="9.29516787 0.537057961 0.359791341 0.537057961 0.359791341 4.15342024 9.29516787 4.15342024 9.29516787 0.537057961"></polygon>
        <polygon id="path-5" points="0.140520284 2.31158376 8.86541859 2.31158376 8.86541859 0.714246723 0.140520284 0.714246723 0.140520284 2.31158376"></polygon>
        <polygon id="path-7" points="7.85149786e-13 0.401184836 7.85149786e-13 20.025934 18.5524708 20.025934 18.5524708 0.401184836 7.85149723e-13 0.401184836"></polygon>
        <polygon id="path-9" points="9.06315784 0.565141523 0.350810847 0.565141523 0.350810847 4.37060878 9.06315784 4.37060878 9.06315784 0.565141523"></polygon>
        <polygon id="path-11" points="0.137012858 2.43245993 8.64413523 2.43245993 8.64413523 0.75159575 0.137012858 0.75159575 0.137012858 2.43245993"></polygon>
        <polygon id="path-13" points="2.18491954e-13 0.39280782 2.18491954e-13 19.6077787 18.7348014 19.6077787 18.7348014 0.39280782 2.18491891e-13 0.39280782"></polygon>
        <polygon id="path-15" points="9.15222906 0.553340978 0.354258558 0.553340978 0.354258558 4.27934745 9.15222906 4.27934745 9.15222906 0.553340978"></polygon>
        <polygon id="path-17" points="0.138359398 2.38166849 8.72908836 2.38166849 8.72908836 0.735901912 0.138359398 0.735901912 0.138359398 2.38166849"></polygon>
        <polygon id="path-19" points="-1.81898933e-12 0.418472222 -1.81898933e-12 20.888868 20.7273323 20.888868 20.7273323 0.418472222 -1.8189894e-12 0.418472222"></polygon>
        <polygon id="path-21" points="10.12561 0.589493937 0.391935559 0.589493937 0.391935559 4.55894191 10.12561 4.55894191 10.12561 0.589493937"></polygon>
        <polygon id="path-23" points="0.153074546 2.53727663 9.65746641 2.53727663 9.65746641 0.783982631 0.153074546 0.783982631 0.153074546 2.53727663"></polygon>
        <polygon id="path-25" points="4.13713514e-12 0.358690061 4.13713514e-12 17.9047233 17.6459946 17.9047233 17.6459946 0.358690061 4.13713508e-12 0.358690061"></polygon>
        <polygon id="path-27" points="8.62033075 0.505279934 0.333670182 0.505279934 0.333670182 3.90765998 8.62033075 3.90765998 8.62033075 0.505279934"></polygon>
        <polygon id="path-29" points="0.130318392 2.17480603 8.22178164 2.17480603 8.22178164 0.671984335 0.130318392 0.671984335 0.130318392 2.17480603"></polygon>
        <polygon id="path-31" points="-3.47455392e-12 0.348414131 -3.47455392e-12 17.3917799 16.6075779 17.3917799 16.6075779 0.348414131 -3.47455398e-12 0.348414131"></polygon>
        <polygon id="path-33" points="8.11304875 0.490804424 0.314034639 0.490804424 0.314034639 3.7957114 8.11304875 3.7957114 8.11304875 0.490804424"></polygon>
        <polygon id="path-35" points="0.122649524 2.11250111 7.73795312 2.11250111 7.73795312 0.652732995 0.122649524 0.652732995 0.122649524 2.11250111"></polygon>
        <polygon id="path-37" points="-3.41060462e-13 0.306649432 -3.41060462e-13 15.3070124 15.1848049 15.3070124 15.1848049 0.306649432 -3.41060513e-13 0.306649432"></polygon>
        <polygon id="path-39" points="7.41800297 0.431971279 0.287131257 0.431971279 0.287131257 3.34071624 7.41800297 3.34071624 7.41800297 0.431971279"></polygon>
        <polygon id="path-41" points="0.112142126 1.8592738 7.07504182 1.8592738 7.07504182 0.574489334 0.112142126 0.574489334 0.112142126 1.8592738"></polygon>
        <polygon id="path-43" points="-1.0623502e-11 0.262843728 -1.0623502e-11 13.1203642 12.3526518 13.1203642 12.3526518 0.262843728 -1.06235021e-11 0.262843728"></polygon>
        <polygon id="path-45" points="6.03445409 0.370263009 0.233577743 0.370263009 0.233577743 2.86348586 6.03445409 2.86348586 6.03445409 0.370263009"></polygon>
        <polygon id="path-47" points="0.0912262389 1.59367149 5.75545942 1.59367149 5.75545942 0.492421974 0.0912262389 0.492421974 0.0912262389 1.59367149"></polygon>
        <polygon id="path-49" points="-6.40554273e-12 0.234131345 -6.40554273e-12 11.6871288 10.9686554 11.6871288 10.9686554 0.234131345 -6.40554276e-12 0.234131345"></polygon>
        <polygon id="path-51" points="5.35835125 0.329816416 0.207407591 0.329816416 0.207407591 2.55068592 5.35835125 2.55068592 5.35835125 0.329816416"></polygon>
        <polygon id="path-53" points="0.0810052116 1.41958285 5.11061526 1.41958285 5.11061526 0.438631045 0.0810052116 0.438631045 0.0810052116 1.41958285"></polygon>
        <polygon id="path-55" points="-6.96864785e-12 0.178035286 -6.96864785e-12 8.88698317 8.68133401 8.88698317 8.68133401 0.178035286 -6.96864788e-12 0.178035286"></polygon>
        <polygon id="path-57" points="4.24096075 0.250794955 0.164156363 0.250794955 0.164156363 1.93956131 4.24096075 1.93956131 4.24096075 0.250794955"></polygon>
        <polygon id="path-59" points="0.0641129906 1.07946179 4.04488577 1.07946179 4.04488577 0.33353844 0.0641129906 0.33353844 0.0641129906 1.07946179"></polygon>
        <polygon id="path-61" points="-3.51541014e-12 0.255976729 -3.51541014e-12 12.7775843 12.5460729 12.7775843 12.5460729 0.255976729 -3.51541019e-12 0.255976729"></polygon>
        <polygon id="path-63" points="6.12894318 0.360589597 0.237235165 0.360589597 0.237235165 2.78867503 6.12894318 2.78867503 6.12894318 0.360589597"></polygon>
        <polygon id="path-65" points="0.0926546836 1.55203557 5.84557994 1.55203557 5.84557994 0.479557062 0.0926546836 0.479557062 0.0926546836 1.55203557"></polygon>
    </defs>
    <g id="gray-theme" stroke="none" stroke-width="1" fill="none" fill-rule="evenodd">
        <g id="Desktop-HD" transform="translate(-813.000000, -2032.000000)">
            <g id="Group" transform="translate(78.000000, 1685.000000)">
                <g id="bg_bear_tracks" transform="translate(731.000000, 346.000000)">
                    <g id="Page-1" transform="translate(25.555315, 81.665214) rotate(34.000000) translate(-25.555315, -81.665214) translate(3.555315, 69.165214)">
                        <g id="Group-3" transform="translate(-0.000000, 1.004229)">
                            <mask id="mask-2" fill="white">
                                <use xlink:href="#path-1"></use>
                            </mask>
                            <g id="Clip-2"></g>
                            <path d="M2.51317222,4.93122459 C2.51317222,4.93122459 6.27724892,8.84550643 1.68554881,13.0032751 C-2.9061513,17.1610438 3.33700787,18.7329207 3.33700787,18.7329207 C3.33700787,18.7329207 8.93624952,20.7047017 16.6556843,14.5019519 C24.3751191,8.29843161 10.7799369,1.46539 10.7799369,1.46539 C10.7799369,1.46539 8.14650362,-0.200491365 4.29436172,0.597775561 C0.441272892,1.39527196 2.51317222,4.93122459 2.51317222,4.93122459" id="Fill-1" fill="#D1D2D4" mask="url(#mask-2)"></path>
                        </g>
                        <g id="Group-6" transform="translate(14.204063, 0.233701)">
                            <mask id="mask-4" fill="white">
                                <use xlink:href="#path-3"></use>
                            </mask>
                            <g id="Clip-5"></g>
                            <path d="M7.53071014,1.19593639 C7.53071014,1.19593639 4.0961677,0.0678835099 1.8737053,0.762899695 C-0.349704032,1.45868641 -0.160316525,3.03672759 2.68238996,3.89355464 C5.52604338,4.75038169 8.51552517,3.21394901 8.51552517,3.21394901 C8.51552517,3.21394901 10.8080609,2.55052447 7.53071014,1.19593639" id="Fill-4" fill="#D1D2D4" mask="url(#mask-4)"></path>
                        </g>
                        <path d="M29.4347957,6.45371071 C29.4347957,6.45371071 25.3582296,4.13596272 22.5827557,5.09989315 C19.8072818,6.06382358 20.7078194,8.86392205 24.47379,9.24918601 C28.2397606,9.63367944 32.8333546,8.16197111 29.4347957,6.45371071" id="Fill-7" fill="#D1D2D4"></path>
                        <path d="M24.9401567,14.2632424 C24.9401567,14.2632424 20.9743823,11.521704 25.4372989,11.0331893 C29.8992686,10.5446746 31.8452252,12.1019115 31.8452252,12.1019115 C31.8452252,12.1019115 33.6964881,13.7947614 31.090516,14.3811331 C28.4854909,14.9667343 24.9401567,14.2632424 24.9401567,14.2632424" id="Fill-9" fill="#D1D2D4"></path>
                        <path d="M20.112101,17.1309932 C20.112101,17.1309932 20.2730804,13.9702876 25.4585103,16.2741661 L28.3996983,16.9414433 C29.2008075,16.711826 31.6798899,20.0119971 26.479309,19.7145733 C21.2777811,19.416379 20.4719373,19.1251194 20.112101,17.1309932" id="Fill-11" fill="#D1D2D4"></path>
                        <path d="M15.0646399,22.6064416 C15.0646399,22.6064416 11.7418361,20.7841431 14.5087875,19.2192009 C17.2747921,17.6542587 20.6506244,20.3218263 20.6506244,20.3218263 C20.6506244,20.3218263 22.4677975,20.7078608 22.4801077,21.2356725 C22.4924179,21.7634841 20.1904127,24.5104161 15.0646399,22.6064416" id="Fill-13" fill="#D1D2D4"></path>
                        <path d="M25.7542389,2.4533609 C25.7542389,2.4533609 25.7409818,0.806742734 29.5836543,2.27074578 C33.4263268,3.73551936 34.1639912,4.37274595 34.1639912,4.37274595 L29.9340212,3.5213126 C29.9340212,3.5213126 26.389634,3.34100907 25.7542389,2.4533609" id="Fill-15" fill="#D1D2D4"></path>
                        <path d="M40.5038327,8.99622169 C40.5038327,8.99622169 37.2728818,6.80561081 33.8402332,6.9735859 C30.4066377,7.14233151 33.3203645,8.38519305 34.5381262,8.34743718 C35.7558879,8.30968131 37.6743833,7.92210577 40.5038327,8.99622169" id="Fill-17" fill="#D1D2D4"></path>
                        <g id="Group-21" transform="translate(23.673438, 21.808483)">
                            <mask id="mask-6" fill="white">
                                <use xlink:href="#path-5"></use>
                            </mask>
                            <g id="Clip-20"></g>
                            <path d="M0.200940145,0.920857919 C0.200940145,0.920857919 -0.601115947,2.43340423 3.63927034,2.30395554 C7.87965662,2.17450685 8.86541859,1.82237559 8.86541859,1.82237559 L4.5615875,1.26374284 C4.5615875,1.26374284 1.2113225,0.304435582 0.200940145,0.920857919" id="Fill-19" fill="#D1D2D4" mask="url(#mask-6)"></path>
                        </g>
                        <path d="M40.1355687,18.530503 C40.1355687,18.530503 36.538153,20.3027173 33.1746308,19.7186571 C29.8111087,19.1338264 32.9208516,18.2592772 34.1177806,18.445745 C35.3147097,18.6314422 37.1404052,19.2478645 40.1355687,18.530503" id="Fill-22" fill="#D1D2D4"></path>
                        <path d="M37.3802645,14.5625154 C37.3802645,14.5625154 33.9996975,14.8121664 34.3273379,13.5454185 C34.6549783,12.2786706 37.3026156,12.8226633 38.0374392,13.0846428 C38.7722627,13.3473929 43.0022327,14.3929993 43.0022327,14.3929993 L37.3802645,14.5625154 Z" id="Fill-24" fill="#D1D2D4"></path>
                    </g>
                    <g id="Page-1" transform="translate(61.225680, 126.364521) rotate(1.000000) translate(-61.225680, -126.364521) translate(40.225680, 113.364521)">
                        <g id="Group-3" transform="translate(-0.000000, 1.056742)">
                            <mask id="mask-8" fill="white">
                                <use xlink:href="#path-7"></use>
                            </mask>
                            <g id="Clip-2"></g>
                            <path d="M2.45044273,5.18908568 C2.45044273,5.18908568 6.12056701,9.30805116 1.64347704,13.6832357 C-2.83361293,18.0584203 3.25371521,19.7124931 3.25371521,19.7124931 C3.25371521,19.7124931 8.7131982,21.7873814 16.2399537,15.2602806 C23.7667092,8.73236898 10.5108666,1.54201743 10.5108666,1.54201743 C10.5108666,1.54201743 7.94316457,-0.210975358 4.18717323,0.629034137 C0.430258595,1.46823281 2.45044273,5.18908568 2.45044273,5.18908568" id="Fill-1" fill="#D1D2D4" mask="url(#mask-8)"></path>
                        </g>
                        <g id="Group-6" transform="translate(13.849526, 0.245922)">
                            <mask id="mask-10" fill="white">
                                <use xlink:href="#path-9"></use>
                            </mask>
                            <g id="Clip-5"></g>
                            <path d="M7.34274147,1.25847368 C7.34274147,1.25847368 3.99392619,0.0714332399 1.82693708,0.802792858 C-0.34097532,1.5349633 -0.156314979,3.19552261 2.61543674,4.09715442 C5.38811176,4.99878623 8.30297525,3.3820112 8.30297525,3.3820112 C8.30297525,3.3820112 10.5382887,2.6838952 7.34274147,1.25847368" id="Fill-4" fill="#D1D2D4" mask="url(#mask-10)"></path>
                        </g>
                        <path d="M28.7000949,6.79118487 C28.7000949,6.79118487 24.725281,4.35223838 22.0190837,5.36657417 C19.3128864,6.38090996 20.1909464,9.32742976 23.8629172,9.73283974 C27.5348881,10.1374389 32.0138247,8.58877276 28.7000949,6.79118487" id="Fill-7" fill="#D1D2D4"></path>
                        <path d="M24.3176433,15.0090886 C24.3176433,15.0090886 20.4508558,12.1241911 24.8023767,11.6101312 C29.1529744,11.0960714 31.0503594,12.7347385 31.0503594,12.7347385 C31.0503594,12.7347385 32.8554142,14.51611 30.3144879,15.133144 C27.7744849,15.7493672 24.3176433,15.0090886 24.3176433,15.0090886" id="Fill-9" fill="#D1D2D4"></path>
                        <path d="M19.6100973,18.0267984 C19.6100973,18.0267984 19.7670585,14.7008148 24.8230587,17.1251665 L27.6908338,17.8273366 C28.471947,17.5857123 30.8891509,21.0584543 25.8183779,20.7454777 C20.7466817,20.4316904 19.9609519,20.1252005 19.6100973,18.0267984" id="Fill-11" fill="#D1D2D4"></path>
                        <path d="M14.6886222,23.7885662 C14.6886222,23.7885662 11.4487565,21.8709769 14.1466441,20.2242016 C16.8436084,18.5774262 20.1351789,21.384485 20.1351789,21.384485 C20.1351789,21.384485 21.9069949,21.7907058 21.9189978,22.3461175 C21.9310008,22.9015291 19.6864543,25.7921024 14.6886222,23.7885662" id="Fill-13" fill="#D1D2D4"></path>
                        <path d="M25.1114058,2.5816508 C25.1114058,2.5816508 25.0984796,0.848928515 28.8452379,2.38948647 C32.5919962,3.93085524 33.3112483,4.60140336 33.3112483,4.60140336 L29.1868595,3.70544729 C29.1868595,3.70544729 25.7309413,3.51571542 25.1114058,2.5816508" id="Fill-15" fill="#D1D2D4"></path>
                        <path d="M39.4928455,9.46664755 C39.4928455,9.46664755 36.3425401,7.16148636 32.9955714,7.33824511 C29.6476794,7.51581468 32.4886788,8.82366731 33.6760448,8.78393713 C34.8634108,8.74420695 36.73402,8.3363645 39.4928455,9.46664755" id="Fill-17" fill="#D1D2D4"></path>
                        <g id="Group-21" transform="translate(23.082543, 22.948881)">
                            <mask id="mask-12" fill="white">
                                <use xlink:href="#path-11"></use>
                            </mask>
                            <g id="Clip-20"></g>
                            <path d="M0.195924622,0.969010953 C0.195924622,0.969010953 -0.586111923,2.56065057 3.54843311,2.42443281 C7.68297815,2.28821505 8.64413523,1.91767033 8.64413523,1.91767033 L4.44772898,1.32982584 C4.44772898,1.32982584 1.18108754,0.320354972 0.195924622,0.969010953" id="Fill-19" fill="#D1D2D4" mask="url(#mask-12)"></path>
                        </g>
                        <path d="M39.1337735,19.4994907 C39.1337735,19.4994907 35.6261503,21.3643766 32.3465826,20.7497751 C29.067015,20.1343627 32.0991378,19.2140821 33.2661911,19.4103005 C34.4332445,19.6057081 36.2133702,20.2543641 39.1337735,19.4994907" id="Fill-22" fill="#D1D2D4"></path>
                        <path d="M36.4472425,15.3240111 C36.4472425,15.3240111 33.1510554,15.5867167 33.4705178,14.2537287 C33.7899802,12.9207406 36.3715318,13.4931795 37.0880139,13.7688583 C37.804496,14.045348 41.9288847,15.1456307 41.9288847,15.1456307 L36.4472425,15.3240111 Z" id="Fill-24" fill="#D1D2D4"></path>
                    </g>
                    <g id="Page-1" transform="translate(119.268947, 89.225473) rotate(-9.000000) translate(-119.268947, -89.225473) translate(97.768947, 76.225473)">
                        <g id="Group-3" transform="translate(0.000000, 1.034676)">
                            <mask id="mask-14" fill="white">
                                <use xlink:href="#path-13"></use>
                            </mask>
                            <g id="Clip-2"></g>
                            <path d="M2.47452527,5.08073399 C2.47452527,5.08073399 6.18071893,9.11369263 1.65962886,13.3975203 C-2.86146121,17.6813481 3.28569219,19.3008826 3.28569219,19.3008826 C3.28569219,19.3008826 8.79883007,21.3324459 16.3995573,14.9416354 C24.0002845,8.55003109 10.6141657,1.50981904 10.6141657,1.50981904 C10.6141657,1.50981904 8.02122868,-0.206570047 4.22832408,0.615899471 C0.434487105,1.4375751 2.47452527,5.08073399 2.47452527,5.08073399" id="Fill-1" fill="#D1D2D4" mask="url(#mask-14)"></path>
                        </g>
                        <g id="Group-6" transform="translate(13.985636, 0.240787)">
                            <mask id="mask-16" fill="white">
                                <use xlink:href="#path-15"></use>
                            </mask>
                            <g id="Clip-5"></g>
                            <path d="M7.41490472,1.23219589 C7.41490472,1.23219589 4.03317783,0.0699416645 1.84489192,0.786029989 C-0.344326369,1.5029122 -0.157851217,3.12879789 2.64114082,4.01160301 C5.44106524,4.89440813 8.38457552,3.31139247 8.38457552,3.31139247 C8.38457552,3.31139247 10.6418572,2.62785362 7.41490472,1.23219589" id="Fill-4" fill="#D1D2D4" mask="url(#mask-16)"></path>
                        </g>
                        <path d="M28.9821547,6.64938025 C28.9821547,6.64938025 24.968277,4.26136064 22.2354837,5.2545164 C19.5026903,6.24767216 20.3893796,9.13266659 24.097438,9.52961134 C27.8054965,9.92576219 32.3284513,8.40943326 28.9821547,6.64938025" id="Fill-7" fill="#D1D2D4"></path>
                        <path d="M24.5566331,14.6956884 C24.5566331,14.6956884 20.6518434,11.8710296 25.0461304,11.3677037 C29.439485,10.8643777 31.3555172,12.4688284 31.3555172,12.4688284 C31.3555172,12.4688284 33.1783118,14.2130036 30.6124137,14.8171535 C28.047448,15.4205096 24.5566331,14.6956884 24.5566331,14.6956884" id="Fill-9" fill="#D1D2D4"></path>
                        <path d="M19.8028221,17.6503864 C19.8028221,17.6503864 19.9613259,14.3938517 25.0670156,16.7675813 L27.9629747,17.4550896 C28.7517646,17.2185105 31.1927244,20.6187392 26.0721167,20.3122979 C20.9505766,20.0050626 20.1571248,19.7049724 19.8028221,17.6503864" id="Fill-11" fill="#D1D2D4"></path>
                        <path d="M14.8329795,23.2918445 C14.8329795,23.2918445 11.561273,21.4142959 14.285675,19.8019063 C17.0091446,18.1895167 20.3330641,20.9379622 20.3330641,20.9379622 C20.3330641,20.9379622 22.1222932,21.3357008 22.1344141,21.8795151 C22.146535,22.4233294 19.8799295,25.2535455 14.8329795,23.2918445" id="Fill-13" fill="#D1D2D4"></path>
                        <path d="M25.3581966,2.52774415 C25.3581966,2.52774415 25.3451433,0.831202302 29.1287241,2.33959234 C32.912305,3.84877627 33.6386257,4.50532289 33.6386257,4.50532289 L29.4737032,3.62807499 C29.4737032,3.62807499 25.9838207,3.44230485 25.3581966,2.52774415" id="Fill-15" fill="#D1D2D4"></path>
                        <path d="M39.8809747,9.26897741 C39.8809747,9.26897741 36.6997086,7.01194958 33.3198464,7.18501749 C29.9390519,7.35887929 32.8079721,8.63942304 34.0070074,8.60052246 C35.2060426,8.56162187 37.0950359,8.16229546 39.8809747,9.26897741" id="Fill-17" fill="#D1D2D4"></path>
                        <g id="Group-21" transform="translate(23.309394, 22.469693)">
                            <mask id="mask-18" fill="white">
                                <use xlink:href="#path-17"></use>
                            </mask>
                            <g id="Clip-20"></g>
                            <path d="M0.197850137,0.948777336 C0.197850137,0.948777336 -0.591872134,2.50718242 3.58330653,2.37380898 C7.75848519,2.24043554 8.72908836,1.87762805 8.72908836,1.87762805 L4.49144052,1.30205816 C4.49144052,1.30205816 1.19269508,0.31366574 0.197850137,0.948777336" id="Fill-19" fill="#D1D2D4" mask="url(#mask-18)"></path>
                        </g>
                        <path d="M39.5183737,19.0923279 C39.5183737,19.0923279 35.9762782,20.9182737 32.6644795,20.3165055 C29.3526808,19.7139433 32.4146028,18.8128788 33.5931258,19.005 C34.7716487,19.1963274 36.5692692,19.831439 39.5183737,19.0923279" id="Fill-22" fill="#D1D2D4"></path>
                        <path d="M36.80544,15.0040351 C36.80544,15.0040351 33.4768585,15.2612553 33.7994605,13.956101 C34.1220625,12.6509467 36.7289852,13.2114326 37.4525088,13.4813551 C38.1760323,13.7520714 42.3409549,14.8293794 42.3409549,14.8293794 L36.80544,15.0040351 Z" id="Fill-24" fill="#D1D2D4"></path>
                    </g>
                    <g id="Page-1" transform="translate(172.906734, 123.862903) rotate(-23.000000) translate(-172.906734, -123.862903) translate(149.406734, 110.362903)">
                        <g id="Group-3" transform="translate(-0.000000, 1.102278)">
                            <mask id="mask-20" fill="white">
                                <use xlink:href="#path-19"></use>
                            </mask>
                            <g id="Clip-2"></g>
                            <path d="M2.73770223,5.41268766 C2.73770223,5.41268766 6.83806636,9.70914276 1.8361379,14.2728577 C-3.16579056,18.8365726 3.63514042,20.5619207 3.63514042,20.5619207 C3.63514042,20.5619207 9.73462547,22.7262176 18.1437244,15.9178587 C26.5528234,9.10865395 11.7430302,1.60846423 11.7430302,1.60846423 C11.7430302,1.60846423 8.87432265,-0.22006646 4.67802548,0.656139737 C0.480696775,1.53150017 2.73770223,5.41268766 2.73770223,5.41268766" id="Fill-1" fill="#D1D2D4" mask="url(#mask-20)"></path>
                        </g>
                        <g id="Group-6" transform="translate(15.473072, 0.256519)">
                            <mask id="mask-22" fill="white">
                                <use xlink:href="#path-21"></use>
                            </mask>
                            <g id="Clip-5"></g>
                            <path d="M8.2035134,1.31270235 C8.2035134,1.31270235 4.46212455,0.0745113571 2.04110453,0.837385864 C-0.380947037,1.60110613 -0.174639408,3.33322031 2.9220381,4.27370418 C6.01974715,5.21418805 9.27631307,3.52774485 9.27631307,3.52774485 C9.27631307,3.52774485 11.7736669,2.79954646 8.2035134,1.31270235" id="Fill-4" fill="#D1D2D4" mask="url(#mask-22)"></path>
                        </g>
                        <path d="M32.064538,7.08382263 C32.064538,7.08382263 27.6237663,4.53977992 24.600328,5.59782428 C21.5768897,6.65586864 22.5578824,9.72935639 26.6603096,10.1522358 C30.7627368,10.5742695 35.7667284,8.95887006 32.064538,7.08382263" id="Fill-7" fill="#D1D2D4"></path>
                        <path d="M27.1683422,15.6558426 C27.1683422,15.6558426 22.8482604,12.6466325 27.7098997,12.1104214 C32.5705074,11.5742102 34.6903183,13.2834889 34.6903183,13.2834889 C34.6903183,13.2834889 36.7069754,15.1416212 33.8681824,15.7852437 C31.030421,16.4280204 27.1683422,15.6558426 27.1683422,15.6558426" id="Fill-9" fill="#D1D2D4"></path>
                        <path d="M21.9089418,18.803588 C21.9089418,18.803588 22.0843033,15.334285 27.7330062,17.8631041 L30.9369636,18.5955313 C31.8096449,18.3434951 34.5102118,21.9658804 28.8450043,21.6394175 C23.1787653,21.3121088 22.3009263,20.9924119 21.9089418,18.803588" id="Fill-11" fill="#D1D2D4"></path>
                        <path d="M16.410534,24.8136351 C16.410534,24.8136351 12.7908667,22.8134154 15.8050211,21.0956791 C18.8181441,19.3779428 22.4955775,22.30596 22.4955775,22.30596 C22.4955775,22.30596 24.4750992,22.7296852 24.4885092,23.3090301 C24.5019192,23.8883749 21.99425,26.9035053 16.410534,24.8136351" id="Fill-13" fill="#D1D2D4"></path>
                        <path d="M28.0551555,2.69289626 C28.0551555,2.69289626 28.040714,0.885509544 32.2266958,2.49245141 C36.4126776,4.10023904 37.2162458,4.79968163 37.2162458,4.79968163 L32.6083649,3.86511807 C32.6083649,3.86511807 28.7473176,3.66721049 28.0551555,2.69289626" id="Fill-15" fill="#D1D2D4"></path>
                        <path d="M44.1224968,9.87457319 C44.1224968,9.87457319 40.6028887,7.47008071 36.8635629,7.65445614 C33.1232056,7.83967734 36.2972484,9.2038864 37.6238065,9.16244422 C38.9503646,9.12100203 41.0402608,8.69558532 44.1224968,9.87457319" id="Fill-17" fill="#D1D2D4"></path>
                        <g id="Group-21" transform="translate(25.788454, 23.937767)">
                            <mask id="mask-24" fill="white">
                                <use xlink:href="#path-23"></use>
                            </mask>
                            <g id="Clip-20"></g>
                            <path d="M0.218892394,1.01076643 C0.218892394,1.01076643 -0.654820414,2.67099111 3.9644074,2.52890362 C8.5836352,2.38681613 9.65746641,2.00030432 9.65746641,2.00030432 L4.96912555,1.38712913 C4.96912555,1.38712913 1.31954359,0.334159332 0.218892394,1.01076643" id="Fill-19" fill="#D1D2D4" mask="url(#mask-24)"></path>
                        </g>
                        <path d="M43.7213316,20.3397398 C43.7213316,20.3397398 39.8025182,22.2849852 36.1384947,21.6439 C32.4744712,21.001969 35.8620425,20.0420327 37.1659067,20.2467063 C38.4697709,20.4505342 40.4585765,21.1271413 43.7213316,20.3397398" id="Fill-22" fill="#D1D2D4"></path>
                        <path d="M40.7198651,15.9843353 C40.7198651,15.9843353 37.0372739,16.2583612 37.3941861,14.8679336 C37.7510983,13.477506 40.635279,14.0746118 41.4357526,14.3621698 C42.2362262,14.6505736 46.844107,15.7982684 46.844107,15.7982684 L40.7198651,15.9843353 Z" id="Fill-24" fill="#D1D2D4"></path>
                    </g>
                    <g id="Page-1" transform="translate(210.898094, 79.201567) rotate(-20.000000) translate(-210.898094, -79.201567) translate(190.898094, 67.201567)">
                        <g id="Group-3" transform="translate(0.000000, 0.944808)">
                            <mask id="mask-26" fill="white">
                                <use xlink:href="#path-25"></use>
                            </mask>
                            <g id="Clip-2"></g>
                            <path d="M2.33071377,4.63944121 C2.33071377,4.63944121 5.82151529,8.32211275 1.56317653,12.2338639 C-2.69516223,16.145615 3.09473825,17.6244831 3.09473825,17.6244831 C3.09473825,17.6244831 8.28747018,19.4795926 15.4464674,13.6438631 C22.6054646,7.80740865 9.99730428,1.37868203 9.99730428,1.37868203 C9.99730428,1.37868203 7.5550605,-0.188628176 3.9825874,0.562404839 C0.409236103,1.31271292 2.33071377,4.63944121 2.33071377,4.63944121" id="Fill-1" fill="#D1D2D4" mask="url(#mask-26)"></path>
                        </g>
                        <g id="Group-6" transform="translate(13.172836, 0.219873)">
                            <mask id="mask-28" fill="white">
                                <use xlink:href="#path-27"></use>
                            </mask>
                            <g id="Clip-5"></g>
                            <path d="M6.98397415,1.12517215 C6.98397415,1.12517215 3.79878243,0.0638668037 1.7376727,0.717758483 C-0.324315221,1.3723751 -0.148677408,2.85704268 2.48764616,3.66317078 C5.12484791,4.46929888 7.89729078,3.02377781 7.89729078,3.02377781 C7.89729078,3.02377781 10.0233865,2.39960848 6.98397415,1.12517215" id="Fill-4" fill="#D1D2D4" mask="url(#mask-28)"></path>
                        </g>
                        <path d="M27.2978044,6.07184095 C27.2978044,6.07184095 23.5172005,3.89123544 20.9432284,4.79812955 C18.3692563,5.70502367 19.204414,8.3394387 22.6969719,8.70190637 C26.1895298,9.06364911 30.449625,7.6790226 27.2978044,6.07184095" id="Fill-7" fill="#D1D2D4"></path>
                        <path d="M23.1294801,13.4192781 C23.1294801,13.4192781 19.4516243,10.8399582 23.5905293,10.3803492 C27.7285562,9.92074016 29.5332347,11.3858345 29.5332347,11.3858345 C29.5332347,11.3858345 31.2500943,12.9785174 28.833318,13.5301932 C26.4174199,14.0811441 23.1294801,13.4192781 23.1294801,13.4192781" id="Fill-9" fill="#D1D2D4"></path>
                        <path d="M18.6519453,16.1173425 C18.6519453,16.1173425 18.8012374,13.1436577 23.6102008,15.3112144 L26.337856,15.9390084 C27.0808039,15.7229777 29.3799029,18.8278757 24.5568886,18.5480507 C19.732996,18.2675007 18.9856572,17.9934752 18.6519453,16.1173425" id="Fill-11" fill="#D1D2D4"></path>
                        <path d="M13.9709342,21.2688055 C13.9709342,21.2688055 10.8893687,19.5543334 13.4554372,18.0819898 C16.0206274,16.6096461 19.1513714,19.1193722 19.1513714,19.1193722 C19.1513714,19.1193722 20.8366162,19.4825648 20.8480327,19.9791455 C20.8594492,20.4757263 18.7245715,23.0601208 13.9709342,21.2688055" id="Fill-13" fill="#D1D2D4"></path>
                        <path d="M23.8844592,2.30819413 C23.8844592,2.30819413 23.8721646,0.759007304 27.4358558,2.13638445 C30.999547,3.51448654 31.6836563,4.11400807 31.6836563,4.11400807 L27.7607857,3.31295452 C27.7607857,3.31295452 24.4737241,3.14331965 23.8844592,2.30819413" id="Fill-15" fill="#D1D2D4"></path>
                        <path d="M37.5632198,8.4639101 C37.5632198,8.4639101 34.5668388,6.40291892 31.3834034,6.56095482 C28.1990899,6.71971566 30.9012776,7.88903637 32.0306288,7.85351454 C33.1599799,7.81799271 34.9391909,7.45335023 37.5632198,8.4639101" id="Fill-17" fill="#D1D2D4"></path>
                        <g id="Group-21" transform="translate(21.954727, 20.518062)">
                            <mask id="mask-30" fill="white">
                                <use xlink:href="#path-29"></use>
                            </mask>
                            <g id="Clip-20"></g>
                            <path d="M0.186351719,0.866370228 C0.186351719,0.866370228 -0.557474417,2.28941831 3.3750562,2.16762917 C7.30758682,2.04584003 8.22178164,1.71454458 8.22178164,1.71454458 L4.23041235,1.18896646 C4.23041235,1.18896646 1.12337945,0.286421954 0.186351719,0.866370228" id="Fill-19" fill="#D1D2D4" mask="url(#mask-30)"></path>
                        </g>
                        <path d="M37.2216921,17.4340425 C37.2216921,17.4340425 33.8854519,19.1013938 30.7661243,18.5518928 C27.6467968,18.0016669 30.5307697,17.1788653 31.6408006,17.3542997 C32.7508316,17.5290091 34.4439801,18.1089574 37.2216921,17.4340425" id="Fill-22" fill="#D1D2D4"></path>
                        <path d="M34.6664254,13.700843 C34.6664254,13.700843 31.5312905,13.9357221 31.8351439,12.7439284 C32.1389973,11.5521347 34.5944139,12.063939 35.2758886,12.310417 C35.9573633,12.55762 39.8802339,13.5413572 39.8802339,13.5413572 L34.6664254,13.700843 Z" id="Fill-24" fill="#D1D2D4"></path>
                    </g>
                    <g id="Page-1" transform="translate(261.565075, 49.340759) rotate(-9.000000) translate(-261.565075, -49.340759) translate(242.565075, 37.840759)">
                        <g id="Group-3" transform="translate(-0.000000, 0.917741)">
                            <mask id="mask-32" fill="white">
                                <use xlink:href="#path-31"></use>
                            </mask>
                            <g id="Clip-2"></g>
                            <path d="M2.19355788,4.50652819 C2.19355788,4.50652819 5.47893564,8.08369674 1.47118803,11.8833821 C-2.53655958,15.6830674 2.91262169,17.1195681 2.91262169,17.1195681 C2.91262169,17.1195681 7.79977608,18.9215316 14.5374866,13.2529869 C21.2751972,7.58373814 9.4089913,1.33918487 9.4089913,1.33918487 C9.4089913,1.33918487 7.11046663,-0.183224263 3.74822343,0.546292786 C0.38515372,1.27510567 2.19355788,4.50652819 2.19355788,4.50652819" id="Fill-1" fill="#D1D2D4" mask="url(#mask-32)"></path>
                        </g>
                        <g id="Group-6" transform="translate(12.397652, 0.213574)">
                            <mask id="mask-34" fill="white">
                                <use xlink:href="#path-33"></use>
                            </mask>
                            <g id="Clip-5"></g>
                            <path d="M6.57298709,1.09293766 C6.57298709,1.09293766 3.57523486,0.0620371158 1.63541559,0.697195782 C-0.30523019,1.33305862 -0.139928165,2.7751927 2.34125524,3.55822645 C4.82326515,4.34126019 7.43255763,2.93715112 7.43255763,2.93715112 C7.43255763,2.93715112 9.43353865,2.3308633 6.57298709,1.09293766" id="Fill-4" fill="#D1D2D4" mask="url(#mask-34)"></path>
                        </g>
                        <path d="M25.6914061,5.89789184 C25.6914061,5.89789184 22.13328,3.7797574 19.7107788,4.66067036 C17.2882776,5.54158332 18.0742888,8.10052633 21.3613196,8.45260985 C24.6483503,8.8039892 28.657751,7.45903016 25.6914061,5.89789184" id="Fill-7" fill="#D1D2D4"></path>
                        <path d="M21.7683758,13.034836 C21.7683758,13.034836 18.3069514,10.5294097 22.2022936,10.0829678 C26.0968093,9.63652588 27.7952877,11.0596475 27.7952877,11.0596475 C27.7952877,11.0596475 29.411115,12.6067024 27.1365591,13.1425736 C24.8628297,13.6777405 21.7683758,13.034836 21.7683758,13.034836" id="Fill-9" fill="#D1D2D4"></path>
                        <path d="M17.5543313,15.6556049 C17.5543313,15.6556049 17.694838,12.7671117 22.2208074,14.8725711 L24.7879479,15.4823798 C25.4871755,15.272538 27.650979,18.2884854 23.1117854,18.0166769 C18.5717652,17.7441643 17.8684051,17.4779892 17.5543313,15.6556049" id="Fill-11" fill="#D1D2D4"></path>
                        <path d="M13.1487843,20.6594862 C13.1487843,20.6594862 10.2485603,18.9941312 12.6636229,17.563968 C15.077859,16.1338047 18.0243676,18.571631 18.0243676,18.571631 C18.0243676,18.571631 19.6104405,18.9244187 19.6211851,19.4067731 C19.6319298,19.8891275 17.6226836,22.399483 13.1487843,20.6594862" id="Fill-13" fill="#D1D2D4"></path>
                        <path d="M22.4789266,2.24206784 C22.4789266,2.24206784 22.4673554,0.737262886 25.8213335,2.07518025 C29.1753116,3.41380179 29.819163,3.99614793 29.819163,3.99614793 L26.1271423,3.21804335 C26.1271423,3.21804335 23.0335149,3.05326827 22.4789266,2.24206784" id="Fill-15" fill="#D1D2D4"></path>
                        <path d="M35.352731,8.22143181 C35.352731,8.22143181 32.5326784,6.21948493 29.5365792,6.37299334 C26.5396535,6.52720592 29.0828251,7.66302735 30.1457172,7.62852316 C31.2086092,7.59401898 32.8831187,7.23982296 35.352731,8.22143181" id="Fill-17" fill="#D1D2D4"></path>
                        <g id="Group-21" transform="translate(20.662753, 19.930251)">
                            <mask id="mask-36" fill="white">
                                <use xlink:href="#path-35"></use>
                            </mask>
                            <g id="Clip-20"></g>
                            <path d="M0.175385449,0.841550024 C0.175385449,0.841550024 -0.524668629,2.22382992 3.17644372,2.10552985 C6.87755608,1.98722979 7.73795312,1.66542546 7.73795312,1.66542546 L3.98146459,1.15490436 C3.98146459,1.15490436 1.05727176,0.278216396 0.175385449,0.841550024" id="Fill-19" fill="#D1D2D4" mask="url(#mask-36)"></path>
                        </g>
                        <path d="M35.0313012,16.9345835 C35.0313012,16.9345835 31.8913892,18.5541676 28.9556252,18.020409 C26.0198612,17.4859462 28.7341205,16.6867167 29.7788293,16.8571251 C30.8235381,17.0268293 32.4170496,17.590163 35.0313012,16.9345835" id="Fill-22" fill="#D1D2D4"></path>
                        <path d="M32.6264047,13.3083345 C32.6264047,13.3083345 29.6757635,13.5364846 29.961736,12.378834 C30.2477085,11.2211834 32.5586308,11.7183253 33.2000027,11.9577421 C33.8413745,12.1978631 37.5333953,13.1534177 37.5333953,13.1534177 L32.6264047,13.3083345 Z" id="Fill-24" fill="#D1D2D4"></path>
                    </g>
                    <g id="Page-1" transform="translate(318.016146, 65.083893) rotate(-23.000000) translate(-318.016146, -65.083893) translate(300.516146, 55.083893)">
                        <g id="Group-3" transform="translate(0.000000, 0.807731)">
                            <mask id="mask-38" fill="white">
                                <use xlink:href="#path-37"></use>
                            </mask>
                            <g id="Clip-2"></g>
                            <path d="M2.00563553,3.96632682 C2.00563553,3.96632682 5.00955462,7.11469711 1.34515119,10.4589109 C-2.31925224,13.8031247 2.66309707,15.0674309 2.66309707,15.0674309 C2.66309707,15.0674309 7.1315684,16.6533915 13.2920586,11.6643401 C19.4525487,6.67466898 8.60292197,1.17865564 8.60292197,1.17865564 C8.60292197,1.17865564 6.50131217,-0.161261014 3.42711271,0.480808204 C0.352157558,1.12225766 2.00563553,3.96632682 2.00563553,3.96632682" id="Fill-1" fill="#D1D2D4" mask="url(#mask-38)"></path>
                        </g>
                        <g id="Group-6" transform="translate(11.335544, 0.187973)">
                            <mask id="mask-40" fill="white">
                                <use xlink:href="#path-39"></use>
                            </mask>
                            <g id="Clip-5"></g>
                            <path d="M6.00987856,0.961926287 C6.00987856,0.961926287 3.26894409,0.0546006739 1.49530936,0.613622329 C-0.279081086,1.17326374 -0.127940503,2.44252799 2.14067964,3.13169881 C4.41005549,3.82086963 6.79580959,2.58507231 6.79580959,2.58507231 C6.79580959,2.58507231 8.62536635,2.05146073 6.00987856,0.961926287" id="Fill-4" fill="#D1D2D4" mask="url(#mask-40)"></path>
                        </g>
                        <path d="M23.4904205,5.19090652 C23.4904205,5.19090652 20.2371195,3.32667465 18.0221542,4.10199183 C15.807189,4.877309 16.5258625,7.12950933 19.531293,7.4393883 C22.5367234,7.7486475 26.2026383,6.56490985 23.4904205,5.19090652" id="Fill-7" fill="#D1D2D4"></path>
                        <path d="M19.9034766,11.4723391 C19.9034766,11.4723391 16.7385928,9.26724037 20.3002207,8.87431384 C23.8610928,8.48138731 25.4140623,9.73391809 25.4140623,9.73391809 C25.4140623,9.73391809 26.8914615,11.0955263 24.8117671,11.5671621 C22.7328283,12.0381781 19.9034766,11.4723391 19.9034766,11.4723391" id="Fill-9" fill="#D1D2D4"></path>
                        <path d="M16.0504498,13.7789542 C16.0504498,13.7789542 16.1789193,11.2367071 20.3171484,13.0897833 L22.6643617,13.6264937 C23.3036863,13.4418058 25.2821166,16.0962291 21.1317962,15.8570025 C16.98072,15.6171562 16.3376169,15.3828877 16.0504498,13.7789542" id="Fill-11" fill="#D1D2D4"></path>
                        <path d="M12.0223265,18.183016 C12.0223265,18.183016 9.37056499,16.7172885 11.5787289,15.4585601 C13.7861371,14.1998318 16.480218,16.3454337 16.480218,16.3454337 C16.480218,16.3454337 17.9304119,16.6559325 17.940236,17.0804666 C17.9500602,17.5050008 16.1129464,19.7144379 12.0223265,18.183016" id="Fill-13" fill="#D1D2D4"></path>
                        <path d="M20.5531544,1.97330926 C20.5531544,1.97330926 20.5425746,0.648886555 23.609217,1.82642663 C26.6758594,3.00458646 27.264552,3.51712627 27.264552,3.51712627 L23.8888271,2.83229375 C23.8888271,2.83229375 21.0602311,2.6872704 20.5531544,1.97330926" id="Fill-15" fill="#D1D2D4"></path>
                        <path d="M32.3240586,7.23592177 C32.3240586,7.23592177 29.7456002,5.47394996 27.0061772,5.60905719 C24.2659984,5.74478418 26.5912963,6.74445373 27.5631302,6.71408559 C28.5349642,6.68371745 30.0660183,6.37197921 32.3240586,7.23592177" id="Fill-17" fill="#D1D2D4"></path>
                        <g id="Group-21" transform="translate(18.892573, 17.541195)">
                            <mask id="mask-42" fill="white">
                                <use xlink:href="#path-41"></use>
                            </mask>
                            <g id="Clip-20"></g>
                            <path d="M0.160360158,0.740672705 C0.160360158,0.740672705 -0.47972021,1.95725753 2.90431744,1.85313819 C6.28835509,1.74901886 7.07504182,1.46578949 7.07504182,1.46578949 L3.64037208,1.01646499 C3.64037208,1.01646499 0.966695167,0.244866359 0.160360158,0.740672705" id="Fill-19" fill="#D1D2D4" mask="url(#mask-42)"></path>
                        </g>
                        <path d="M32.0301657,14.9046205 C32.0301657,14.9046205 29.1592504,16.3300637 26.4749936,15.8602872 C23.7907369,15.389891 26.2724652,14.6864657 27.2276737,14.8364471 C28.1828822,14.9858088 29.6398774,15.4816151 32.0301657,14.9046205" id="Fill-22" fill="#D1D2D4"></path>
                        <path d="M29.831297,11.7130531 C29.831297,11.7130531 27.1334376,11.9138546 27.3949108,10.8949726 C27.656384,9.87609056 29.7693293,10.3136397 30.3557548,10.5243574 C30.9421802,10.7356948 34.3179052,11.5767063 34.3179052,11.5767063 L29.831297,11.7130531 Z" id="Fill-24" fill="#D1D2D4"></path>
                    </g>
                    <g id="Page-1" transform="translate(354.760766, 34.185933) rotate(5.000000) translate(-354.760766, -34.185933) translate(340.760766, 25.185933)">
                        <g id="Group-3" transform="translate(-0.000000, 0.692344)">
                            <mask id="mask-44" fill="white">
                                <use xlink:href="#path-43"></use>
                            </mask>
                            <g id="Clip-2"></g>
                            <path d="M1.63155982,3.39972627 C1.63155982,3.39972627 4.07521101,6.09834332 1.09426393,8.96482711 C-1.88668315,11.8313109 2.16639668,12.9150075 2.16639668,12.9150075 C2.16639668,12.9150075 5.8014431,14.2744093 10.812926,9.99805746 C15.8244089,5.7211744 6.99837111,1.01028148 6.99837111,1.01028148 C6.99837111,1.01028148 5.28873741,-0.138224441 2.787914,0.412123447 C0.286475838,0.961940111 1.63155982,3.39972627 1.63155982,3.39972627" id="Fill-1" fill="#D1D2D4" mask="url(#mask-44)"></path>
                        </g>
                        <g id="Group-6" transform="translate(9.221325, 0.161120)">
                            <mask id="mask-46" fill="white">
                                <use xlink:href="#path-45"></use>
                            </mask>
                            <g id="Clip-5"></g>
                            <path d="M4.88896222,0.824512507 C4.88896222,0.824512507 2.65924578,0.0468008194 1.21641575,0.525964714 C-0.227029028,1.00565983 -0.104078024,2.09360624 1.74141654,2.68432714 C3.58752585,3.27504803 5.52830744,2.21578772 5.52830744,2.21578772 C5.52830744,2.21578772 7.01662934,1.758404 4.88896222,0.824512507" id="Fill-4" fill="#D1D2D4" mask="url(#mask-46)"></path>
                        </g>
                        <path d="M19.1091679,4.44937143 C19.1091679,4.44937143 16.4626476,2.85145015 14.6608006,3.51601116 C12.8589536,4.18057217 13.4435857,6.11103957 15.8884664,6.37665149 C18.3333471,6.64173218 21.3155237,5.62709466 19.1091679,4.44937143" id="Fill-7" fill="#D1D2D4"></path>
                        <path d="M16.1912332,9.83348432 C16.1912332,9.83348432 13.6166392,7.94338993 16.5139796,7.60659402 C19.4107052,7.26979811 20.6740268,8.34340147 20.6740268,8.34340147 C20.6740268,8.34340147 21.8758729,9.51050023 20.184067,9.91476156 C18.492876,10.3184917 16.1912332,9.83348432 16.1912332,9.83348432" id="Fill-9" fill="#D1D2D4"></path>
                        <path d="M13.0568433,11.8105932 C13.0568433,11.8105932 13.1613516,9.63151302 16.5277501,11.2198723 L18.4371792,11.6799121 C18.9572619,11.5216074 20.5666906,13.7968391 17.190456,13.5917867 C13.8136067,13.386203 13.2904502,13.1854004 13.0568433,11.8105932" id="Fill-11" fill="#D1D2D4"></path>
                        <path d="M9.78001461,15.5855228 C9.78001461,15.5855228 7.62283926,14.3291785 9.41915342,13.2502629 C11.2148528,12.1713473 13.4064545,14.0104442 13.4064545,14.0104442 C13.4064545,14.0104442 14.5861693,14.2765873 14.5941612,14.6404756 C14.602153,15.004364 13.1076835,16.8981769 9.78001461,15.5855228" id="Fill-13" fill="#D1D2D4"></path>
                        <path d="M16.7197381,1.69141667 C16.7197381,1.69141667 16.7111315,0.55619135 19.2058074,1.56551663 C21.7004832,2.57537313 22.1793774,3.01469524 22.1793774,3.01469524 L19.4332667,2.4276929 C19.4332667,2.4276929 17.1322387,2.30338653 16.7197381,1.69141667" id="Fill-15" fill="#D1D2D4"></path>
                        <path d="M26.2952237,6.2022507 C26.2952237,6.2022507 24.1976796,4.69198136 21.9691927,4.80778815 C19.740091,4.92412617 21.6316922,5.78099021 22.4222671,5.75496024 C23.2128421,5.72893027 24.4583357,5.46172469 26.2952237,6.2022507" id="Fill-17" fill="#D1D2D4"></path>
                        <g id="Group-21" transform="translate(15.368875, 15.035387)">
                            <mask id="mask-48" fill="white">
                                <use xlink:href="#path-47"></use>
                            </mask>
                            <g id="Clip-20"></g>
                            <path d="M0.130451015,0.634865599 C0.130451015,0.634865599 -0.390246485,1.67765798 2.36262648,1.58841237 C5.11549945,1.49916677 5.75545942,1.25639748 5.75545942,1.25639748 L2.96139787,0.871260204 C2.96139787,0.871260204 0.786394618,0.209886535 0.130451015,0.634865599" id="Fill-19" fill="#D1D2D4" mask="url(#mask-48)"></path>
                        </g>
                        <path d="M26.0561455,12.775455 C26.0561455,12.775455 23.7206912,13.9972698 21.5370814,13.5946022 C19.3534715,13.1914033 21.372327,12.5884642 22.1493774,12.7170204 C22.9264277,12.8450453 24.1116754,13.2700244 26.0561455,12.775455" id="Fill-22" fill="#D1D2D4"></path>
                        <path d="M24.2673928,10.0398117 C24.2673928,10.0398117 22.0727174,10.2119282 22.2854226,9.3385962 C22.4981279,8.46526422 24.2169829,8.84030824 24.6940328,9.02092435 C25.1710827,9.20207167 27.9171934,9.92294241 27.9171934,9.92294241 L24.2673928,10.0398117 Z" id="Fill-24" fill="#D1D2D4"></path>
                    </g>
                    <g id="Page-1" transform="translate(438.027602, 8.882707) rotate(-4.000000) translate(-438.027602, -8.882707) translate(425.527602, 0.882707)">
                        <g id="Group-3" transform="translate(-0.000000, 0.616714)">
                            <mask id="mask-50" fill="white">
                                <use xlink:href="#path-49"></use>
                            </mask>
                            <g id="Clip-2"></g>
                            <path d="M1.44875915,3.02834878 C1.44875915,3.02834878 3.6186226,5.43217575 0.971662127,7.98553211 C-1.67529835,10.5388885 1.92367266,11.5042048 1.92367266,11.5042048 C1.92367266,11.5042048 5.1514469,12.715109 9.60144109,8.90589499 C14.0514353,5.09620781 6.21427059,0.89992089 6.21427059,0.89992089 C6.21427059,0.89992089 4.69618499,-0.123125153 2.47555491,0.367104126 C0.254378961,0.856860211 1.44875915,3.02834878 1.44875915,3.02834878" id="Fill-1" fill="#D1D2D4" mask="url(#mask-50)"></path>
                        </g>
                        <g id="Group-6" transform="translate(8.188164, 0.143520)">
                            <mask id="mask-52" fill="white">
                                <use xlink:href="#path-51"></use>
                            </mask>
                            <g id="Clip-5"></g>
                            <path d="M4.34120078,0.734444849 C4.34120078,0.734444849 2.36130273,0.0416884165 1.08012801,0.468509661 C-0.201592597,0.8958041 -0.0924170776,1.864906 1.54630748,2.39109804 C3.18557791,2.91729008 4.90891349,1.97374068 4.90891349,1.97374068 C4.90891349,1.97374068 6.23048315,1.5663204 4.34120078,0.734444849" id="Fill-4" fill="#D1D2D4" mask="url(#mask-52)"></path>
                        </g>
                        <path d="M16.9681685,3.96333337 C16.9681685,3.96333337 14.6181654,2.53996496 13.0181982,3.13193101 C11.4182309,3.72389706 11.9373605,5.44348509 14.1083157,5.68008223 C16.2792709,5.91620618 18.9273232,5.0124051 16.9681685,3.96333337" id="Fill-7" fill="#D1D2D4"></path>
                        <path d="M14.3771604,8.7592994 C14.3771604,8.7592994 12.0910251,7.07567414 14.6637462,6.77566896 C17.2359214,6.47566378 18.3576999,7.43198943 18.3576999,7.43198943 C18.3576999,7.43198943 19.4248906,8.47159728 17.9226355,8.83169813 C16.4209262,9.19132578 14.3771604,8.7592994 14.3771604,8.7592994" id="Fill-9" fill="#D1D2D4"></path>
                        <path d="M11.5939489,10.5204339 C11.5939489,10.5204339 11.6867481,8.57939094 14.6759738,9.99424185 L16.3714697,10.4040281 C16.8332821,10.2630162 18.2623897,12.2897073 15.2644299,12.1070543 C12.2659242,11.9239281 11.8013824,11.7450607 11.5939489,10.5204339" id="Fill-11" fill="#D1D2D4"></path>
                        <path d="M8.68425755,13.8829998 C8.68425755,13.8829998 6.76877305,12.7638953 8.3638274,11.8028377 C9.95833587,10.8417801 11.9043895,12.4799787 11.9043895,12.4799787 C11.9043895,12.4799787 12.9519286,12.7170491 12.959025,13.0411872 C12.9661214,13.3653252 11.639093,15.0522629 8.68425755,13.8829998" id="Fill-13" fill="#D1D2D4"></path>
                        <path d="M14.8464514,1.5066506 C14.8464514,1.5066506 14.8388091,0.495434416 17.0539804,1.39450356 C19.2691517,2.29404589 19.6943904,2.68537757 19.6943904,2.68537757 L17.2559551,2.16249788 C17.2559551,2.16249788 15.2127353,2.05177042 14.8464514,1.5066506" id="Fill-15" fill="#D1D2D4"></path>
                        <path d="M23.3490955,5.52473255 C23.3490955,5.52473255 21.4865611,4.1794412 19.5077548,4.28259755 C17.5284026,4.3862271 19.208068,5.14948948 19.9100666,5.12630296 C20.6120652,5.10311644 21.7180132,4.86509972 23.3490955,5.52473255" id="Fill-17" fill="#D1D2D4"></path>
                        <g id="Group-21" transform="translate(13.646940, 13.392960)">
                            <mask id="mask-54" fill="white">
                                <use xlink:href="#path-53"></use>
                            </mask>
                            <g id="Clip-20"></g>
                            <path d="M0.115835227,0.56551449 C0.115835227,0.56551449 -0.3465231,1.49439487 2.09791679,1.41489823 C4.54235668,1.33540159 5.11061526,1.1191518 5.11061526,1.1191518 L2.62960157,0.776085946 C2.62960157,0.776085946 0.698286625,0.186959062 0.115835227,0.56551449" id="Fill-19" fill="#D1D2D4" mask="url(#mask-54)"></path>
                        </g>
                        <path d="M23.1368037,11.3798967 C23.1368037,11.3798967 21.0630147,12.4682435 19.1240575,12.1095623 C17.1851002,11.7504078 18.9777623,11.2133323 19.6677515,11.3278453 C20.3577408,11.4418851 21.4101928,11.8204405 23.1368037,11.3798967" id="Fill-22" fill="#D1D2D4"></path>
                        <path d="M21.5484636,8.94308806 C21.5484636,8.94308806 19.5996806,9.09640301 19.7885543,8.31847161 C19.9774279,7.5405402 21.5037017,7.87461537 21.9273027,8.03550142 C22.3509037,8.19686068 24.7893389,8.83898532 24.7893389,8.83898532 L21.5484636,8.94308806 Z" id="Fill-24" fill="#D1D2D4"></path>
                    </g>
                    <g id="Page-1" transform="translate(479.463464, 16.193890) rotate(-17.000000) translate(-479.463464, -16.193890) translate(469.463464, 9.693890)">
                        <g id="Group-3" transform="translate(-0.000000, 0.468954)">
                            <mask id="mask-56" fill="white">
                                <use xlink:href="#path-55"></use>
                            </mask>
                            <g id="Clip-2"></g>
                            <path d="M1.14664575,2.30277984 C1.14664575,2.30277984 2.86402211,4.13066847 0.769038973,6.0722604 C-1.32594416,8.01385233 1.52252435,8.74788634 1.52252435,8.74788634 C1.52252435,8.74788634 4.07720269,9.66866725 7.59922837,6.77211146 C11.121254,3.87519584 4.91839307,0.684306808 4.91839307,0.684306808 C4.91839307,0.684306808 3.71687769,-0.0936253188 1.9593212,0.279148818 C0.201332675,0.651563134 1.14664575,2.30277984 1.14664575,2.30277984" id="Fill-1" fill="#D1D2D4" mask="url(#mask-56)"></path>
                        </g>
                        <g id="Group-6" transform="translate(6.480666, 0.109134)">
                            <mask id="mask-58" fill="white">
                                <use xlink:href="#path-57"></use>
                            </mask>
                            <g id="Clip-5"></g>
                            <path d="M3.43591924,0.558477546 C3.43591924,0.558477546 1.86889432,0.0317001944 0.854886188,0.356258371 C-0.159553985,0.681176369 -0.0731451113,1.41808895 1.22385208,1.81820945 C2.52128131,2.21832995 3.88524538,1.50084768 3.88524538,1.50084768 C3.88524538,1.50084768 4.93122479,1.19104215 3.43591924,0.558477546" id="Fill-4" fill="#D1D2D4" mask="url(#mask-58)"></path>
                        </g>
                        <path d="M13.4297535,3.01374936 C13.4297535,3.01374936 11.5698025,1.93140901 10.3034805,2.38154457 C9.03715843,2.83168014 9.44803262,4.13926818 11.1662731,4.31917848 C12.8845135,4.49872895 14.9803607,3.81147162 13.4297535,3.01374936" id="Fill-7" fill="#D1D2D4"></path>
                        <path d="M11.3790549,6.66063904 C11.3790549,6.66063904 9.56965311,5.38039736 11.6058782,5.1522711 C13.6416713,4.92414484 14.5295224,5.65134227 14.5295224,5.65134227 C14.5295224,5.65134227 15.3741692,6.44186811 14.1851831,6.71569159 C12.996629,6.98915524 11.3790549,6.66063904 11.3790549,6.66063904" id="Fill-9" fill="#D1D2D4"></path>
                        <path d="M9.17623351,7.99981933 C9.17623351,7.99981933 9.24968105,6.52383525 11.615556,7.59969882 L12.9574858,7.91130346 C13.3229953,7.80407692 14.4540875,9.34518853 12.0812998,9.20629778 C9.70808012,9.06704721 9.34041037,8.93103503 9.17623351,7.99981933" id="Fill-11" fill="#D1D2D4"></path>
                        <path d="M6.87330742,10.5567405 C6.87330742,10.5567405 5.35726374,9.70576475 6.61969738,8.97496912 C7.88169897,8.24417349 9.42193714,9.48987239 9.42193714,9.48987239 C9.42193714,9.48987239 10.2510303,9.67014251 10.2566469,9.91661962 C10.2622634,10.1630967 9.21196358,11.4458571 6.87330742,10.5567405" id="Fill-13" fill="#D1D2D4"></path>
                        <path d="M11.7504835,1.14566877 C11.7504835,1.14566877 11.7444348,0.376732163 13.4976709,1.06039129 C15.2509069,1.74441024 15.5874695,2.04198188 15.5874695,2.04198188 L13.6575273,1.64438012 C13.6575273,1.64438012 12.0403852,1.5601821 11.7504835,1.14566877" id="Fill-15" fill="#D1D2D4"></path>
                        <path d="M18.4800497,4.20104938 C18.4800497,4.20104938 17.0059143,3.17807942 15.4397535,3.25652031 C13.8731606,3.33532102 15.2025612,3.91571164 15.7581702,3.89808043 C16.3137793,3.88044923 17.1891012,3.69945947 18.4800497,4.20104938" id="Fill-17" fill="#D1D2D4"></path>
                        <g id="Group-21" transform="translate(10.801109, 10.184110)">
                            <mask id="mask-60" fill="white">
                                <use xlink:href="#path-59"></use>
                            </mask>
                            <g id="Clip-20"></g>
                            <path d="M0.0916798146,0.430021593 C0.0916798146,0.430021593 -0.274261764,1.13634942 1.66043291,1.07589956 C3.59512758,1.0154497 4.04488577,0.851011689 4.04488577,0.851011689 L2.08124412,0.590141758 C2.08124412,0.590141758 0.552671154,0.142165117 0.0916798146,0.430021593" id="Fill-19" fill="#D1D2D4" mask="url(#mask-60)"></path>
                        </g>
                        <path d="M18.3120277,8.65610817 C18.3120277,8.65610817 16.6706911,9.52781152 15.1360695,9.24052841 C13.6014479,8.95286631 15.0202816,8.52269965 15.5663857,8.61441801 C16.1124898,8.70575736 16.9454713,9.00895852 18.3120277,8.65610817" id="Fill-22" fill="#D1D2D4"></path>
                        <path d="M17.0549082,6.80039335 C17.0549082,6.80039335 15.5125098,6.91697523 15.6619971,6.32543017 C15.8114845,5.73388511 17.0194805,5.98791845 17.354747,6.11025745 C17.6900134,6.23295628 19.6199556,6.72123282 19.6199556,6.72123282 L17.0549082,6.80039335 Z" id="Fill-24" fill="#D1D2D4"></path>
                    </g>
                    <g id="Page-1" transform="translate(408.477349, 36.744110) rotate(-19.000000) translate(-408.477349, -36.744110) translate(393.977349, 28.244110)">
                        <g id="Group-3" transform="translate(-0.000000, 0.674256)">
                            <mask id="mask-62" fill="white">
                                <use xlink:href="#path-61"></use>
                            </mask>
                            <g id="Clip-2"></g>
                            <path d="M1.65710721,3.31090574 C1.65710721,3.31090574 4.13902175,5.9390193 1.11139821,8.73061394 C-1.91622534,11.5222086 2.2003187,12.5775928 2.2003187,12.5775928 C2.2003187,12.5775928 5.89228364,13.9014791 10.9822377,9.73685033 C16.0721917,5.57170422 7.10795348,0.98388708 7.10795348,0.98388708 C7.10795348,0.98388708 5.37154987,-0.134613218 2.8315679,0.401356398 C0.290961553,0.936808668 1.65710721,3.31090574 1.65710721,3.31090574" id="Fill-1" fill="#D1D2D4" mask="url(#mask-62)"></path>
                        </g>
                        <g id="Group-6" transform="translate(9.365715, 0.156911)">
                            <mask id="mask-64" fill="white">
                                <use xlink:href="#path-63"></use>
                            </mask>
                            <g id="Clip-5"></g>
                            <path d="M4.9655149,0.802971468 C4.9655149,0.802971468 2.70088496,0.0455781112 1.23546271,0.512223472 C-0.230583909,0.979386177 -0.105707706,2.03890912 1.7686841,2.61419697 C3.64370029,3.18948482 5.61487115,2.15789852 5.61487115,2.15789852 C5.61487115,2.15789852 7.12649759,1.71246431 4.9655149,0.802971468" id="Fill-4" fill="#D1D2D4" mask="url(#mask-64)"></path>
                        </g>
                        <path d="M19.4083843,4.3331281 C19.4083843,4.3331281 16.7204241,2.77695377 14.8903633,3.4241526 C13.0603026,4.07135143 13.6540889,5.95138385 16.1372522,6.21005644 C18.6204155,6.46821169 21.6492878,5.48008238 19.4083843,4.3331281" id="Fill-7" fill="#D1D2D4"></path>
                        <path d="M16.4447599,9.57657679 C16.4447599,9.57657679 13.8298522,7.73586261 16.7725599,7.40786576 C19.7146432,7.07986891 20.9977462,8.12542354 20.9977462,8.12542354 C20.9977462,8.12542354 22.2184111,9.26203092 20.5001146,9.65573061 C18.7824424,10.048913 16.4447599,9.57657679 16.4447599,9.57657679" id="Fill-9" fill="#D1D2D4"></path>
                        <path d="M13.2612908,11.5020321 C13.2612908,11.5020321 13.3674356,9.37988215 16.786546,10.9267443 L18.7258735,11.3747652 C19.2540998,11.2205963 20.8887293,13.4363858 17.4596288,13.2366905 C14.0299038,13.0364779 13.4985556,12.8409215 13.2612908,11.5020321" id="Fill-11" fill="#D1D2D4"></path>
                        <path d="M9.93315269,15.1783388 C9.93315269,15.1783388 7.74219971,13.9548174 9.56664104,12.9040893 C11.390458,11.8533612 13.6163763,13.6444103 13.6163763,13.6444103 C13.6163763,13.6444103 14.8145635,13.9036002 14.8226804,14.2579817 C14.8307974,14.6123631 13.3129271,16.4566987 9.93315269,15.1783388" id="Fill-13" fill="#D1D2D4"></path>
                        <path d="M16.9815402,1.64722708 C16.9815402,1.64722708 16.9727989,0.541660413 19.506537,1.52461627 C22.0402752,2.50808948 22.526668,2.93593395 22.526668,2.93593395 L19.737558,2.36426751 C19.737558,2.36426751 17.4004999,2.24320874 16.9815402,1.64722708" id="Fill-15" fill="#D1D2D4"></path>
                        <path d="M26.7069613,6.04021202 C26.7069613,6.04021202 24.5765733,4.56939965 22.3131921,4.6821809 C20.0491866,4.79547949 21.970407,5.62995728 22.773361,5.60460737 C23.5763149,5.57925746 24.8413109,5.31903283 26.7069613,6.04021202" id="Fill-17" fill="#D1D2D4"></path>
                        <g id="Group-21" transform="translate(15.609525, 14.642576)">
                            <mask id="mask-66" fill="white">
                                <use xlink:href="#path-65"></use>
                            </mask>
                            <g id="Clip-20"></g>
                            <path d="M0.132493651,0.618279235 C0.132493651,0.618279235 -0.396357068,1.63382784 2.39962112,1.54691385 C5.1955993,1.45999986 5.84557994,1.22357311 5.84557994,1.22357311 L3.00776823,0.848497844 C3.00776823,0.848497844 0.798708194,0.204403084 0.132493651,0.618279235" id="Fill-19" fill="#D1D2D4" mask="url(#mask-66)"></path>
                        </g>
                        <path d="M26.4641396,12.4416862 C26.4641396,12.4416862 24.0921161,13.6315801 21.8743147,13.2394325 C19.6565134,12.8467675 21.7069806,12.2595807 22.4961982,12.3847782 C23.2854158,12.5094584 24.4892224,12.9233346 26.4641396,12.4416862" id="Fill-22" fill="#D1D2D4"></path>
                        <path d="M24.6473781,9.77751366 C24.6473781,9.77751366 22.4183379,9.94513351 22.6343737,9.09461802 C22.8504096,8.24410252 24.5961789,8.60934823 25.0806986,8.78524559 C25.5652182,8.9616603 28.3543282,9.66369772 28.3543282,9.66369772 L24.6473781,9.77751366 Z" id="Fill-24" fill="#D1D2D4"></path>
                    </g>
                </g>
            </g>
        </g>
    </g>
</svg>